<svg width="1331" height="703" viewBox="0 0 1331 703" fill="none" xmlns="http://www.w3.org/2000/svg">
<path d="M748.566 255.35C759.446 356.31 731.812 596.201 534.232 748.08C336.652 899.959 329.559 1111.5 350.709 1198.29" stroke="white" stroke-opacity="0.7" stroke-width="2"/>
<path d="M606.73 242.021C617.611 342.982 589.977 582.873 392.397 734.752C194.817 886.63 187.723 1098.17 208.873 1184.96" stroke="white" stroke-opacity="0.7" stroke-width="2"/>
<path d="M704.597 249.721C715.478 350.682 687.844 590.573 490.264 742.452C292.684 894.331 285.59 1105.87 306.741 1192.66" stroke="white" stroke-opacity="0.7" stroke-width="2"/>
<path d="M562.765 236.393C573.646 337.354 546.012 577.245 348.432 729.124C150.852 881.002 143.758 1092.55 164.909 1179.33" stroke="white" stroke-opacity="0.7" stroke-width="2"/>
<path d="M651.886 247.802C662.767 348.762 635.133 588.653 437.553 740.532C239.973 892.411 232.879 1103.95 254.03 1190.74" stroke="white" stroke-opacity="0.7" stroke-width="2"/>
<path d="M510.054 234.472C520.935 335.433 493.301 575.324 295.721 727.203C98.1409 879.082 91.047 1090.63 112.198 1177.41" stroke="white" stroke-opacity="0.7" stroke-width="2"/>
<path d="M1026.32 281.757C1037.2 382.717 1009.56 622.609 811.983 774.487C614.403 926.366 607.309 1137.91 628.459 1224.7" stroke="white" stroke-opacity="0.7" stroke-width="2"/>
<path d="M884.484 268.428C895.365 369.389 867.731 609.28 670.151 761.159C472.571 913.038 465.477 1124.58 486.627 1211.37" stroke="white" stroke-opacity="0.7" stroke-width="2"/>
<path d="M982.347 276.129C993.228 377.089 965.594 616.981 768.014 768.859C570.434 920.738 563.34 1132.28 584.491 1219.07" stroke="white" stroke-opacity="0.7" stroke-width="2"/>
<path d="M840.515 262.801C851.396 363.761 823.762 603.652 626.182 755.531C428.602 907.41 421.508 1118.95 442.659 1205.74" stroke="white" stroke-opacity="0.7" stroke-width="2"/>
<path d="M929.64 274.209C940.521 375.17 912.887 615.061 715.307 766.939C517.727 918.818 510.633 1130.36 531.784 1217.15" stroke="white" stroke-opacity="0.7" stroke-width="2"/>
<path d="M787.804 260.88C798.685 361.84 771.051 601.732 573.471 753.61C375.891 905.489 368.797 1117.03 389.948 1203.82" stroke="white" stroke-opacity="0.7" stroke-width="2"/>
</svg>
