<svg width="430" height="639" viewBox="0 0 430 639" fill="none" xmlns="http://www.w3.org/2000/svg">
<path d="M148.815 657.298C170.908 589.029 249.249 442.277 385.867 401.423C522.484 360.568 583.221 226.164 596.511 164.069" stroke="white" stroke-opacity="0.7" stroke-width="2"/>
<path d="M213.74 706.895C235.833 638.626 314.174 491.874 450.792 451.02C587.41 410.165 648.146 275.761 661.437 213.666" stroke="white" stroke-opacity="0.7" stroke-width="2"/>
<path d="M168.536 673.638C190.629 605.369 268.97 458.617 405.588 417.763C542.205 376.908 602.942 242.504 616.233 180.409" stroke="white" stroke-opacity="0.7" stroke-width="2"/>
<path d="M233.461 723.235C255.554 654.966 333.895 508.214 470.513 467.36C607.13 426.505 667.867 292.101 681.157 230.006" stroke="white" stroke-opacity="0.7" stroke-width="2"/>
<path d="M193.486 690.113C215.579 621.844 293.92 475.092 430.537 434.238C567.155 393.383 627.891 258.979 641.182 196.884" stroke="white" stroke-opacity="0.7" stroke-width="2"/>
<path d="M258.411 739.71C280.504 671.441 358.845 524.689 495.463 483.835C632.08 442.98 692.817 308.576 706.108 246.481" stroke="white" stroke-opacity="0.7" stroke-width="2"/>
<path d="M21.7561 559.977C43.8493 491.707 122.19 344.955 258.808 304.101C395.426 263.246 456.162 128.842 469.453 66.7468" stroke="white" stroke-opacity="0.7" stroke-width="2"/>
<path d="M86.6814 609.573C108.775 541.304 187.115 394.552 323.733 353.698C460.351 312.843 521.087 178.439 534.378 116.344" stroke="white" stroke-opacity="0.7" stroke-width="2"/>
<path d="M41.4773 576.316C63.5705 508.047 141.911 361.295 278.529 320.441C415.147 279.586 475.883 145.182 489.174 83.0867" stroke="white" stroke-opacity="0.7" stroke-width="2"/>
<path d="M106.403 625.913C128.496 557.644 206.837 410.892 343.454 370.037C480.072 329.183 540.808 194.779 554.099 132.683" stroke="white" stroke-opacity="0.7" stroke-width="2"/>
<path d="M66.427 592.791C88.5202 524.522 166.861 377.77 303.479 336.916C440.097 296.061 500.833 161.657 514.124 99.5618" stroke="white" stroke-opacity="0.7" stroke-width="2"/>
<path d="M131.352 642.389C153.446 574.119 231.786 427.367 368.404 386.513C505.022 345.658 565.758 211.254 579.049 149.159" stroke="white" stroke-opacity="0.7" stroke-width="2"/>
</svg>
