<svg width="1008" height="858" viewBox="0 0 1008 858" fill="none" xmlns="http://www.w3.org/2000/svg">
<path d="M264.298 697.722C292.715 622.976 397.778 464.474 590.689 428.434C783.599 392.393 864.122 246.452 880.27 177.987" stroke="white" stroke-opacity="0.8" stroke-width="2"/>
<path d="M359.087 757.726C387.504 682.98 492.567 524.479 685.478 488.438C878.388 452.398 958.912 306.457 975.059 237.992" stroke="white" stroke-opacity="0.8" stroke-width="2"/>
<path d="M293.146 717.373C321.563 642.627 426.625 484.125 619.536 448.085C812.447 412.045 892.97 266.104 909.118 197.638" stroke="white" stroke-opacity="0.8" stroke-width="2"/>
<path d="M387.935 777.378C416.352 702.632 521.414 544.13 714.325 508.09C907.236 472.05 987.759 326.109 1003.91 257.643" stroke="white" stroke-opacity="0.8" stroke-width="2"/>
<path d="M329.458 737.543C357.875 662.797 462.938 504.295 655.849 468.255C848.76 432.215 929.283 286.274 945.43 217.808" stroke="white" stroke-opacity="0.8" stroke-width="2"/>
<path d="M424.243 797.548C452.661 722.802 557.723 564.3 750.634 528.26C943.545 492.22 1024.07 346.279 1040.22 277.813" stroke="white" stroke-opacity="0.8" stroke-width="2"/>
<path d="M78.7863 580C107.204 505.254 212.266 346.752 405.177 310.712C598.088 274.672 678.611 128.731 694.758 60.2651" stroke="white" stroke-opacity="0.8" stroke-width="2"/>
<path d="M173.575 640.005C201.993 565.259 307.055 406.757 499.966 370.717C692.877 334.677 773.4 188.736 789.548 120.27" stroke="white" stroke-opacity="0.8" stroke-width="2"/>
<path d="M107.634 599.651C136.051 524.905 241.114 366.403 434.024 330.363C626.935 294.323 707.458 148.382 723.606 79.9165" stroke="white" stroke-opacity="0.8" stroke-width="2"/>
<path d="M202.423 659.656C230.84 584.91 335.903 426.408 528.814 390.368C721.724 354.328 802.247 208.387 818.395 139.921" stroke="white" stroke-opacity="0.8" stroke-width="2"/>
<path d="M143.946 619.822C172.364 545.076 277.426 386.574 470.337 350.534C663.248 314.494 743.771 168.553 759.919 100.087" stroke="white" stroke-opacity="0.8" stroke-width="2"/>
<path d="M238.732 679.827C267.149 605.081 372.211 446.579 565.122 410.539C758.033 374.499 838.556 228.558 854.704 160.092" stroke="white" stroke-opacity="0.8" stroke-width="2"/>
</svg>
